<svg width="41" height="12" viewBox="0 0 41 12" fill="none" xmlns="http://www.w3.org/2000/svg">
<path d="M0.384 7.368L4.74 1.944H0.576V0.408H6.624V2.04L2.316 7.464H6.672V9H0.384V7.368ZM20.7529 2.928C21.2089 2.928 21.6249 3.008 22.0009 3.168C22.3849 3.32 22.7129 3.536 22.9849 3.816C23.2649 4.088 23.4809 4.416 23.6329 4.8C23.7929 5.184 23.8729 5.604 23.8729 6.06C23.8729 6.516 23.7929 6.936 23.6329 7.32C23.4809 7.704 23.2649 8.036 22.9849 8.316C22.7129 8.588 22.3849 8.804 22.0009 8.964C21.6249 9.116 21.2089 9.192 20.7529 9.192C20.2969 9.192 19.8769 9.116 19.4929 8.964C19.1169 8.804 18.7889 8.588 18.5089 8.316C18.2369 8.036 18.0209 7.704 17.8609 7.32C17.7089 6.936 17.6329 6.516 17.6329 6.06C17.6329 5.604 17.7089 5.184 17.8609 4.8C18.0209 4.416 18.2369 4.088 18.5089 3.816C18.7889 3.536 19.1169 3.32 19.4929 3.168C19.8769 3.008 20.2969 2.928 20.7529 2.928ZM20.7529 7.74C20.9529 7.74 21.1449 7.704 21.3289 7.632C21.5209 7.552 21.6889 7.44 21.8329 7.296C21.9769 7.152 22.0889 6.976 22.1689 6.768C22.2569 6.56 22.3009 6.324 22.3009 6.06C22.3009 5.796 22.2569 5.56 22.1689 5.352C22.0889 5.144 21.9769 4.968 21.8329 4.824C21.6889 4.68 21.5209 4.572 21.3289 4.5C21.1449 4.42 20.9529 4.38 20.7529 4.38C20.5449 4.38 20.3489 4.42 20.1649 4.5C19.9809 4.572 19.8169 4.68 19.6729 4.824C19.5289 4.968 19.4129 5.144 19.3249 5.352C19.2449 5.56 19.2049 5.796 19.2049 6.06C19.2049 6.324 19.2449 6.56 19.3249 6.768C19.4129 6.976 19.5289 7.152 19.6729 7.296C19.8169 7.44 19.9809 7.552 20.1649 7.632C20.3489 7.704 20.5449 7.74 20.7529 7.74Z" fill="#4285F4"/>
<path d="M8.69644 2.268C8.56044 2.268 8.42844 2.244 8.30044 2.196C8.18044 2.14 8.07244 2.068 7.97644 1.98C7.88844 1.884 7.81644 1.776 7.76044 1.656C7.71244 1.536 7.68844 1.404 7.68844 1.26C7.68844 1.116 7.71244 0.983999 7.76044 0.864C7.81644 0.744 7.88844 0.64 7.97644 0.551999C8.07244 0.456 8.18044 0.384 8.30044 0.335999C8.42844 0.279999 8.56044 0.252 8.69644 0.252C8.97644 0.252 9.21644 0.352 9.41644 0.551999C9.61644 0.744 9.71644 0.98 9.71644 1.26C9.71644 1.54 9.61644 1.78 9.41644 1.98C9.21644 2.172 8.97644 2.268 8.69644 2.268ZM7.91644 9V3.12H9.48844V9H7.91644ZM31.6798 3.12H33.1558V3.888H33.2518C33.4358 3.6 33.6838 3.368 33.9958 3.192C34.3158 3.016 34.6678 2.928 35.0518 2.928C35.4998 2.928 35.8758 3.032 36.1798 3.24C36.4838 3.448 36.6998 3.704 36.8278 4.008C37.0118 3.712 37.2718 3.46 37.6078 3.252C37.9438 3.036 38.3518 2.928 38.8318 2.928C39.1918 2.928 39.5038 2.988 39.7678 3.108C40.0318 3.22 40.2478 3.38 40.4158 3.588C40.5918 3.796 40.7238 4.048 40.8118 4.344C40.8998 4.632 40.9438 4.948 40.9438 5.292V9H39.3718V5.58C39.3718 4.78 39.0438 4.38 38.3878 4.38C38.1798 4.38 37.9958 4.428 37.8358 4.524C37.6758 4.612 37.5398 4.736 37.4278 4.896C37.3238 5.048 37.2398 5.232 37.1758 5.448C37.1198 5.664 37.0918 5.896 37.0918 6.144V9H35.5198V5.58C35.5198 4.78 35.1758 4.38 34.4878 4.38C34.2878 4.38 34.1118 4.428 33.9598 4.524C33.8078 4.612 33.6798 4.736 33.5758 4.896C33.4718 5.048 33.3918 5.232 33.3358 5.448C33.2798 5.664 33.2518 5.896 33.2518 6.144V9H31.6798V3.12Z" fill="#DB4437"/>
<path d="M13.5793 11.784C13.1633 11.784 12.7913 11.728 12.4633 11.616C12.1433 11.512 11.8633 11.372 11.6233 11.196C11.3833 11.028 11.1833 10.84 11.0233 10.632C10.8633 10.424 10.7473 10.216 10.6753 10.008L12.1753 9.408C12.2873 9.72 12.4713 9.96 12.7273 10.128C12.9833 10.304 13.2673 10.392 13.5793 10.392C14.0753 10.392 14.4673 10.236 14.7553 9.924C15.0433 9.62 15.1873 9.192 15.1873 8.64V8.232H15.0913C14.9073 8.488 14.6633 8.692 14.3593 8.844C14.0633 8.988 13.7113 9.06 13.3033 9.06C12.9513 9.06 12.6073 8.988 12.2713 8.844C11.9433 8.7 11.6513 8.496 11.3953 8.232C11.1393 7.96 10.9313 7.636 10.7713 7.26C10.6113 6.884 10.5313 6.464 10.5313 6C10.5313 5.536 10.6113 5.116 10.7713 4.74C10.9313 4.356 11.1393 4.032 11.3953 3.768C11.6513 3.496 11.9433 3.288 12.2713 3.144C12.6073 3 12.9513 2.928 13.3033 2.928C13.7113 2.928 14.0633 3.004 14.3593 3.156C14.6633 3.3 14.9073 3.5 15.0913 3.756H15.1873V3.12H16.6873V8.58C16.6873 9.076 16.6113 9.52 16.4593 9.912C16.3073 10.312 16.0953 10.648 15.8233 10.92C15.5513 11.2 15.2233 11.412 14.8393 11.556C14.4633 11.708 14.0433 11.784 13.5793 11.784ZM13.6393 7.644C13.8313 7.644 14.0193 7.608 14.2033 7.536C14.3953 7.464 14.5633 7.36 14.7073 7.224C14.8513 7.08 14.9673 6.908 15.0553 6.708C15.1433 6.5 15.1873 6.264 15.1873 6C15.1873 5.736 15.1433 5.5 15.0553 5.292C14.9673 5.084 14.8513 4.912 14.7073 4.776C14.5633 4.632 14.3953 4.524 14.2033 4.452C14.0193 4.38 13.8313 4.344 13.6393 4.344C13.4473 4.344 13.2593 4.38 13.0753 4.452C12.8913 4.524 12.7273 4.632 12.5833 4.776C12.4393 4.92 12.3233 5.096 12.2353 5.304C12.1473 5.504 12.1033 5.736 12.1033 6C12.1033 6.264 12.1473 6.5 12.2353 6.708C12.3233 6.908 12.4393 7.08 12.5833 7.224C12.7273 7.36 12.8913 7.464 13.0753 7.536C13.2593 7.608 13.4473 7.644 13.6393 7.644Z" fill="#F4B400"/>
<path d="M27.6669 2.928C28.1229 2.928 28.5389 3.008 28.9149 3.168C29.2989 3.32 29.6269 3.536 29.8989 3.816C30.1789 4.088 30.3949 4.416 30.5469 4.8C30.7069 5.184 30.7869 5.604 30.7869 6.06C30.7869 6.516 30.7069 6.936 30.5469 7.32C30.3949 7.704 30.1789 8.036 29.8989 8.316C29.6269 8.588 29.2989 8.804 28.9149 8.964C28.5389 9.116 28.1229 9.192 27.6669 9.192C27.2109 9.192 26.7909 9.116 26.4069 8.964C26.0309 8.804 25.7029 8.588 25.4229 8.316C25.1509 8.036 24.9349 7.704 24.7749 7.32C24.6229 6.936 24.5469 6.516 24.5469 6.06C24.5469 5.604 24.6229 5.184 24.7749 4.8C24.9349 4.416 25.1509 4.088 25.4229 3.816C25.7029 3.536 26.0309 3.32 26.4069 3.168C26.7909 3.008 27.2109 2.928 27.6669 2.928ZM27.6669 7.74C27.8669 7.74 28.0589 7.704 28.2429 7.632C28.4349 7.552 28.6029 7.44 28.7469 7.296C28.8909 7.152 29.0029 6.976 29.0829 6.768C29.1709 6.56 29.2149 6.324 29.2149 6.06C29.2149 5.796 29.1709 5.56 29.0829 5.352C29.0029 5.144 28.8909 4.968 28.7469 4.824C28.6029 4.68 28.4349 4.572 28.2429 4.5C28.0589 4.42 27.8669 4.38 27.6669 4.38C27.4589 4.38 27.2629 4.42 27.0789 4.5C26.8949 4.572 26.7309 4.68 26.5869 4.824C26.4429 4.968 26.3269 5.144 26.2389 5.352C26.1589 5.56 26.1189 5.796 26.1189 6.06C26.1189 6.324 26.1589 6.56 26.2389 6.768C26.3269 6.976 26.4429 7.152 26.5869 7.296C26.7309 7.44 26.8949 7.552 27.0789 7.632C27.2629 7.704 27.4589 7.74 27.6669 7.74Z" fill="#0F9D58"/>
</svg>
