<svg width="100" height="100" viewBox="0 0 100 100" fill="none" xmlns="http://www.w3.org/2000/svg">
<g filter="url(#filter0_i_1320_62)">
<mask id="mask0_1320_62" style="mask-type:alpha" maskUnits="userSpaceOnUse" x="0" y="0" width="100" height="100">
<rect width="100" height="100" rx="20" fill="white"/>
</mask>
<g mask="url(#mask0_1320_62)">
<path d="M36.5 0H0V100H9.27644L36.5 0Z" fill="#4285F4"/>
<path d="M65 0H36.5L9 100H36.5L65 0Z" fill="#DB4437"/>
<path d="M94 0H65L36 100H66.8308L94 0Z" fill="#F4B400"/>
<path d="M106 0H94L67 100H101L106 0Z" fill="#0F9D58"/>
</g>
</g>
<g filter="url(#filter1_di_1320_62)">
<path d="M21 37C21 35.3431 22.3431 34 24 34H54C58.9706 34 63 38.0294 63 43V62C63 63.6569 61.6569 65 60 65H30C25.0294 65 21 60.9706 21 56V37Z" fill="white"/>
<path d="M65.4683 42.5414C65.4683 41.9421 65.737 41.3743 66.2006 40.9945L76.3496 32.6777C77.6552 31.6078 79.6173 32.5367 79.6173 34.2247V64.5294C79.6173 66.2578 77.5729 67.1724 76.2843 66.0205L66.1353 56.9477C65.7109 56.5682 65.4683 56.0259 65.4683 55.4566V42.5414Z" fill="white"/>
</g>
<defs>
<filter id="filter0_i_1320_62" x="0" y="0" width="104" height="104" filterUnits="userSpaceOnUse" color-interpolation-filters="sRGB">
<feFlood flood-opacity="0" result="BackgroundImageFix"/>
<feBlend mode="normal" in="SourceGraphic" in2="BackgroundImageFix" result="shape"/>
<feColorMatrix in="SourceAlpha" type="matrix" values="0 0 0 0 0 0 0 0 0 0 0 0 0 0 0 0 0 0 127 0" result="hardAlpha"/>
<feOffset dx="4" dy="4"/>
<feGaussianBlur stdDeviation="10"/>
<feComposite in2="hardAlpha" operator="arithmetic" k2="-1" k3="1"/>
<feColorMatrix type="matrix" values="0 0 0 0 0 0 0 0 0 0 0 0 0 0 0 0 0 0 0.2 0"/>
<feBlend mode="normal" in2="shape" result="effect1_innerShadow_1320_62"/>
</filter>
<filter id="filter1_di_1320_62" x="15" y="26.2209" width="78.6172" height="54.3125" filterUnits="userSpaceOnUse" color-interpolation-filters="sRGB">
<feFlood flood-opacity="0" result="BackgroundImageFix"/>
<feColorMatrix in="SourceAlpha" type="matrix" values="0 0 0 0 0 0 0 0 0 0 0 0 0 0 0 0 0 0 127 0" result="hardAlpha"/>
<feOffset dx="4" dy="4"/>
<feGaussianBlur stdDeviation="5"/>
<feComposite in2="hardAlpha" operator="out"/>
<feColorMatrix type="matrix" values="0 0 0 0 0 0 0 0 0 0 0 0 0 0 0 0 0 0 0.2 0"/>
<feBlend mode="normal" in2="BackgroundImageFix" result="effect1_dropShadow_1320_62"/>
<feBlend mode="normal" in="SourceGraphic" in2="effect1_dropShadow_1320_62" result="shape"/>
<feColorMatrix in="SourceAlpha" type="matrix" values="0 0 0 0 0 0 0 0 0 0 0 0 0 0 0 0 0 0 127 0" result="hardAlpha"/>
<feOffset dx="1" dy="1"/>
<feGaussianBlur stdDeviation="4"/>
<feComposite in2="hardAlpha" operator="arithmetic" k2="-1" k3="1"/>
<feColorMatrix type="matrix" values="0 0 0 0 0 0 0 0 0 0 0 0 0 0 0 0 0 0 0.2 0"/>
<feBlend mode="normal" in2="shape" result="effect2_innerShadow_1320_62"/>
</filter>
</defs>
</svg>
